<?xml version="1.0" ?><svg viewBox="0 0 64 64" xmlns="http://www.w3.org/2000/svg"><title/><g data-name="Line 2 color" id="Line_2_color"><path d="M51.19,42.0015a1,1,0,0,1-.7217-1.6924A5.5,5.5,0,0,0,44.83,31.26a1,1,0,0,1-1.2637-1.229A10.9966,10.9966,0,1,0,22,27a11.138,11.138,0,0,0,.21,2.13,1,1,0,0,1-1.2608,1.1518A6.9981,6.9981,0,0,0,12.9365,40.5a1,1,0,0,1-1.73,1.0029A9.0014,9.0014,0,0,1,19,28a8.8232,8.8232,0,0,1,1.0449.0625Q19.9995,27.5279,20,27a13,13,0,0,1,26,0,12.7,12.7,0,0,1-.1641,2.0293Q46.167,29,46.5,29a7.5,7.5,0,0,1,5.4111,12.6938A.9975.9975,0,0,1,51.19,42.0015Z" style="fill:#00bcd4"/><path d="M31,50H22a1,1,0,0,1,0-2h9a1,1,0,0,1,0,2Z" style="fill:#eb4559"/><path d="M42,50H36a1,1,0,0,1,0-2h6a1,1,0,0,1,0,2Z" style="fill:#eb4559"/><path d="M36,46H20a1,1,0,0,1,0-2H36a1,1,0,0,1,0,2Z" style="fill:#eb4559"/><path d="M44,46H40a1,1,0,0,1,0-2h4a1,1,0,0,1,0,2Z" style="fill:#eb4559"/><path d="M22,42H10a1,1,0,0,1,0-2H22a1,1,0,0,1,0,2Z" style="fill:#eb4559"/><path d="M34,42H26a1,1,0,0,1,0-2h8a1,1,0,0,1,0,2Z" style="fill:#eb4559"/><path d="M54,42H38a1,1,0,0,1,0-2H54a1,1,0,0,1,0,2Z" style="fill:#eb4559"/></g></svg>